<svg xmlns="http://www.w3.org/2000/svg" width="18.015" height="20.589" viewBox="0 0 18.015 20.589">
  <path id="calendar-day-regular" d="M4.5,14.8h3.86a.645.645,0,0,0,.643-.643v-3.86a.645.645,0,0,0-.643-.643H4.5a.645.645,0,0,0-.643.643v3.86A.645.645,0,0,0,4.5,14.8ZM16.085,2.574h-1.93V.643A.645.645,0,0,0,13.512,0H12.225a.645.645,0,0,0-.643.643v1.93H6.434V.643A.645.645,0,0,0,5.791,0H4.5A.645.645,0,0,0,3.86.643v1.93H1.93A1.931,1.931,0,0,0,0,4.5V18.659a1.931,1.931,0,0,0,1.93,1.93H16.085a1.931,1.931,0,0,0,1.93-1.93V4.5A1.931,1.931,0,0,0,16.085,2.574Zm0,15.844a.242.242,0,0,1-.241.241H2.172a.242.242,0,0,1-.241-.241V6.434H16.085Z" fill="#4a4a4a"/>
</svg>
