<svg xmlns="http://www.w3.org/2000/svg" width="20.681" height="21.338" viewBox="0 0 20.681 21.338">
  <path id="cog-regular" d="M34.434,17.851l1.37-.791a1.034,1.034,0,0,0,.481-1.164,10.651,10.651,0,0,0-2.756-4.767,1.033,1.033,0,0,0-1.247-.164l-1.367.79a8.444,8.444,0,0,0-1.415-.818V9.356a1.033,1.033,0,0,0-.767-1,10.738,10.738,0,0,0-5.5,0,1.033,1.033,0,0,0-.768,1v1.581a8.444,8.444,0,0,0-1.415.818l-1.367-.79a1.033,1.033,0,0,0-1.247.164A10.651,10.651,0,0,0,15.675,15.9a1.034,1.034,0,0,0,.481,1.164l1.37.791a8.506,8.506,0,0,0,0,1.635l-1.37.791a1.034,1.034,0,0,0-.481,1.164,10.651,10.651,0,0,0,2.756,4.767,1.033,1.033,0,0,0,1.247.164l1.367-.79a8.441,8.441,0,0,0,1.415.818v1.581a1.033,1.033,0,0,0,.767,1,10.738,10.738,0,0,0,5.5,0,1.033,1.033,0,0,0,.768-1V26.4a8.446,8.446,0,0,0,1.415-.818l1.367.79a1.033,1.033,0,0,0,1.247-.164,10.651,10.651,0,0,0,2.756-4.767,1.034,1.034,0,0,0-.481-1.164l-1.37-.791A8.506,8.506,0,0,0,34.434,17.851Zm-2.266,2.711,1.885,1.088A8.61,8.61,0,0,1,32.6,24.168l-1.886-1.089a7.329,7.329,0,0,1-3.277,1.894V27.15a8.643,8.643,0,0,1-2.909,0V24.973a7.33,7.33,0,0,1-3.277-1.894l-1.886,1.089a8.611,8.611,0,0,1-1.456-2.518l1.885-1.088a7.4,7.4,0,0,1,0-3.787l-1.885-1.088a8.612,8.612,0,0,1,1.456-2.518l1.886,1.089a7.329,7.329,0,0,1,3.277-1.894V10.187a8.643,8.643,0,0,1,2.909,0v2.177a7.33,7.33,0,0,1,3.277,1.894L32.6,13.169a8.61,8.61,0,0,1,1.456,2.518l-1.885,1.088a7.4,7.4,0,0,1,0,3.787ZM25.98,14.539a4.13,4.13,0,1,0,4.13,4.13A4.135,4.135,0,0,0,25.98,14.539Zm0,6.195a2.065,2.065,0,1,1,2.065-2.065A2.067,2.067,0,0,1,25.98,20.733Z" transform="translate(-15.64 -7.999)" fill="#4a4a4a"/>
</svg>
