<svg xmlns="http://www.w3.org/2000/svg" width="20.952" height="20.952" viewBox="0 0 20.952 20.952">
  <path id="coins-regular" d="M13.1,0C8.757,0,5.238,1.465,5.238,3.274V5.426C2.189,5.877,0,7.088,0,8.512v9.167c0,1.809,3.519,3.274,7.857,3.274s7.857-1.465,7.857-3.274V15.522c3.049-.45,5.238-1.657,5.238-3.081V3.274C20.952,1.465,17.433,0,13.1,0Zm.655,17.527c-.409.479-2.472,1.461-5.893,1.461s-5.484-.982-5.893-1.461V15.911a14.366,14.366,0,0,0,5.893,1.113,14.366,14.366,0,0,0,5.893-1.113Zm0-3.929c-.409.479-2.472,1.461-5.893,1.461S2.374,14.077,1.964,13.6V11.761A12.279,12.279,0,0,0,7.857,13.1a12.327,12.327,0,0,0,5.893-1.334ZM7.857,11.131c-3.253,0-5.893-.88-5.893-1.964S4.6,7.2,7.857,7.2s5.893.88,5.893,1.964S11.111,11.131,7.857,11.131Zm11.131,1.158a6.6,6.6,0,0,1-3.274,1.244V11.581a11.913,11.913,0,0,0,3.274-.908Zm0-3.929A6.6,6.6,0,0,1,15.714,9.6V8.512a1.584,1.584,0,0,0-.278-.855,10.637,10.637,0,0,0,3.552-1.138V8.361ZM13.1,5.893c-.2,0-.4-.012-.6-.02a15.584,15.584,0,0,0-3.7-.61C7.816,4.911,7.2,4.444,7.2,3.929c0-1.084,2.64-1.964,5.893-1.964s5.893.88,5.893,1.964S16.349,5.893,13.1,5.893Z" fill="#4a4a4a"/>
</svg>
