<svg xmlns="http://www.w3.org/2000/svg" width="23.331" height="17.498" viewBox="0 0 23.331 17.498">
  <path id="concierge-bell-regular" d="M22.6,79.311h-.729V77.123a10.2,10.2,0,0,0-8.749-10.091v-.845h2.187a.729.729,0,0,0,.729-.729v-.729A.729.729,0,0,0,15.311,64H8.02a.729.729,0,0,0-.729.729v.729a.729.729,0,0,0,.729.729h2.187v.845A10.2,10.2,0,0,0,1.458,77.123v2.187H.729A.729.729,0,0,0,0,80.04v.729a.729.729,0,0,0,.729.729H22.6a.729.729,0,0,0,.729-.729V80.04A.729.729,0,0,0,22.6,79.311Zm-2.916,0H3.645V77.123a8.02,8.02,0,0,1,16.04,0Z" transform="translate(0 -64)" fill="#4a4a4a"/>
</svg>
