<svg xmlns="http://www.w3.org/2000/svg" width="16.06" height="21.413" viewBox="0 0 16.06 21.413">
  <path id="file-contract-regular" d="M8.225,15.2l-.58-1.741a1,1,0,0,0-1.905,0L4.977,15.74a.465.465,0,0,1-.443.32H4.015a.669.669,0,0,0,0,1.338h.519a1.8,1.8,0,0,0,1.713-1.235l.444-1.334.7,2.111a.669.669,0,0,0,.588.455l.047,0a.669.669,0,0,0,.6-.371l.32-.641a.456.456,0,0,1,.419-.259.463.463,0,0,1,.426.273,1.8,1.8,0,0,0,1.615,1h.636a.669.669,0,1,0,0-1.338H11.41a.47.47,0,0,1-.425-.272,1.877,1.877,0,0,0-2.76-.592ZM15.467,4.1,11.959.59A2.007,2.007,0,0,0,10.541,0H2.007A2.014,2.014,0,0,0,0,2.011V19.406a2.008,2.008,0,0,0,2.007,2.007H14.049a2.01,2.01,0,0,0,2.01-2.007V5.519A2.02,2.02,0,0,0,15.467,4.1ZM10.7,2.174l3.182,3.182H10.7V2.174Zm3.348,17.232H2.007V2.011H8.7V6.36a1,1,0,0,0,1,1h4.351ZM3.68,4.684H7.026a.334.334,0,0,0,.335-.335V3.68a.334.334,0,0,0-.335-.335H3.68a.334.334,0,0,0-.335.335V4.35A.334.334,0,0,0,3.68,4.684Zm0,2.677H7.026a.334.334,0,0,0,.335-.335V6.357a.334.334,0,0,0-.335-.335H3.68a.334.334,0,0,0-.335.335v.669A.334.334,0,0,0,3.68,7.361Z" fill="#30b34a"/>
</svg>
