<svg xmlns="http://www.w3.org/2000/svg" width="12.692" height="14.004" viewBox="0 0 12.692 14.004">
  <path id="paperclip-regular" d="M25.19,12.814a4.059,4.059,0,0,1,0-5.742L31.345.916a3.132,3.132,0,1,1,4.429,4.43l-5.182,5.183a2.2,2.2,0,1,1-3.116-3.117l4.389-4.39a.328.328,0,0,1,.464,0l.464.464a.328.328,0,0,1,0,.464L28.4,8.34a.891.891,0,1,0,1.26,1.26l5.182-5.183a1.819,1.819,0,1,0-2.572-2.573L26.118,8a2.748,2.748,0,1,0,3.888,3.885Q32.687,9.2,35.368,6.521a.327.327,0,0,1,.461,0l.464.464a.328.328,0,0,1,0,.464q-2.672,2.675-5.353,5.36A4.064,4.064,0,0,1,25.19,12.814Z" transform="translate(-24 0)" fill="#4a4a4a"/>
</svg>
