<svg xmlns="http://www.w3.org/2000/svg" width="24.035" height="18.031" viewBox="0 0 24.035 18.031">
  <path id="sign-out-alt-regular" d="M12.77,66.2v2.423H8.263A2.254,2.254,0,0,0,6.01,70.88v4.16a2.254,2.254,0,0,0,2.254,2.254H12.77v2.423a2.253,2.253,0,0,0,3.845,1.592l6.761-6.756a2.258,2.258,0,0,0,0-3.188L16.615,64.6A2.259,2.259,0,0,0,12.77,66.2Zm9.014,6.761-6.761,6.761V75.044H8.263v-4.16h6.761V66.2ZM4.507,63.95H8.451a.565.565,0,0,1,.563.563V65.64a.565.565,0,0,1-.563.563H4.507a2.254,2.254,0,0,0-2.254,2.254v9.014a2.254,2.254,0,0,0,2.254,2.254H8.451a.565.565,0,0,1,.563.563v1.127a.565.565,0,0,1-.563.563H4.507A4.508,4.508,0,0,1,0,77.471V68.457A4.508,4.508,0,0,1,4.507,63.95Z" transform="translate(0 -63.948)" fill="#4a4a4a"/>
</svg>
