<svg xmlns="http://www.w3.org/2000/svg" width="21.978" height="17.094" viewBox="0 0 21.978 17.094">
  <path id="tachometer-alt-fastest-regular" d="M15.262,39.936a1.221,1.221,0,1,0-1.221-1.221A1.221,1.221,0,0,0,15.262,39.936ZM4.884,41.768A1.221,1.221,0,1,0,6.1,42.989,1.221,1.221,0,0,0,4.884,41.768Zm6.1-3.663a1.221,1.221,0,1,0-1.221-1.221A1.221,1.221,0,0,0,10.989,38.1Zm5.925,3.986-3.887.778a2.435,2.435,0,0,0-4.141,2.562h4.207a2.5,2.5,0,0,0,.274-.763l3.908-.781a.916.916,0,0,0-.36-1.8Zm-10.2-4.6a1.221,1.221,0,1,0,1.221,1.221A1.221,1.221,0,0,0,6.715,37.494ZM10.989,32a10.988,10.988,0,0,0-9.5,16.514,1.207,1.207,0,0,0,1.047.58h16.9a1.207,1.207,0,0,0,1.047-.58A10.988,10.988,0,0,0,10.989,32Zm8.1,15.262H2.89a9.157,9.157,0,1,1,16.2,0Z" transform="translate(0 -32)" fill="#4a4a4a"/>
</svg>
